# xmcd
# 
# Track frame offsets:
#     150
#     17529
#     35213
#     47840
#     62724
#     77745
#     98495
#     114815
#     130274
#     147628
# 
# Disc length: 2083
# 
# Revision: 1
# Processed by: cddbd v1.5.2PL0 Copyright (c) Steve Scherf et al.
# Submitted via: fre:ac v1.0.27
# 
DISCID=8208210a
DTITLE=Mavis Staples - If All I Was Was Black
DYEAR=2017
DGENRE=Soul
TTITLE0=Little Bit
TTITLE1=If All I Was Was Black
TTITLE2=Who Told You That
TTITLE3=Ain’t No Doubt About It (ft Jeff Tweedy)
TTITLE4=Peaceful Dream
TTITLE5=No Time for Crying
TTITLE6=Build a Bridge
TTITLE7=We Go High
TTITLE8=Try Harder
TTITLE9=All Over Again
EXTD=
EXTT0=
EXTT1=
EXTT2=
EXTT3=
EXTT4=
EXTT5=
EXTT6=
EXTT7=
EXTT8=
EXTT9=
PLAYORDER=
